<?xml version="1.0" encoding="UTF-8" standalone="no"?>
<svg
   width="1024"
   height="512"
   version="1.1"
   viewBox="0 0 1024 512"
   id="svg4"
   sodipodi:docname="instagram.svg"
   inkscape:version="1.2.1 (9c6d41e410, 2022-07-14, custom)"
   xmlns:inkscape="http://www.inkscape.org/namespaces/inkscape"
   xmlns:sodipodi="http://sodipodi.sourceforge.net/DTD/sodipodi-0.dtd"
   xmlns="http://www.w3.org/2000/svg"
   xmlns:svg="http://www.w3.org/2000/svg">
  <defs
     id="defs8" />
  <sodipodi:namedview
     id="namedview6"
     pagecolor="#505050"
     bordercolor="#ffffff"
     borderopacity="1"
     inkscape:showpageshadow="0"
     inkscape:pageopacity="0"
     inkscape:pagecheckerboard="1"
     inkscape:deskcolor="#505050"
     showgrid="false"
     inkscape:zoom="0.4609375"
     inkscape:cx="303.72881"
     inkscape:cy="259.25424"
     inkscape:window-width="1272"
     inkscape:window-height="2042"
     inkscape:window-x="1280"
     inkscape:window-y="114"
     inkscape:window-maximized="1"
     inkscape:current-layer="svg4" />
  <path
     d="m 512.05,141.1 c -57.15572,-1.37189 -109.81784,46.13507 -114.30835,103.12866 -6.99323,55.80016 33.25936,112.24993 88.31527,123.73636 54.59474,13.84901 115.70558,-19.07152 133.93696,-72.40148 20.40916,-52.54011 -4.787,-117.31398 -55.57274,-141.92003 C 548.29033,145.36984 530.17282,141.07216 512.05,141.1 Z m 0,189.6 c -44.11046,1.35997 -81.93435,-42.64432 -73.83796,-86.06321 5.37159,-43.71189 54.36236,-74.41131 96.03078,-59.97366 42.35348,11.80475 65.50352,64.64651 45.1144,103.69814 C 567.3329,313.78554 540.2331,331.00823 512.05,330.7 Z m 146.4,-194.3 c 1.29492,22.9996 -30.44541,36.04786 -45.7875,18.95 -17.05233,-15.36775 -3.95772,-46.99633 18.9875,-45.75 14.4084,-0.30633 27.10484,12.38177 26.8,26.8 z m 76.1,27.2 C 734.12838,121.70958 716.94895,78.001654 680.36805,54.968811 637.66096,27.125063 584.49016,33.906656 536.07146,32.000366 c -48.55791,0.681786 -97.52688,-2.03439 -145.74512,4.732334 -49.19214,7.21355 -90.4338,48.232205 -97.59783,97.483 -6.9213,49.35392 -4.09166,99.47636 -4.75507,149.17688 1.81512,48.28923 -4.68103,101.7704 24.71533,143.58918 24.2203,36.09862 68.60141,51.51657 110.54197,51.70896 65.87495,1.67884 131.96212,2.90187 197.74137,-1.50792 47.17633,-3.2653 91.82009,-35.19949 105.63313,-81.15556 12.68534,-43.11385 7.94526,-88.76046 9.51361,-133.10362 -0.0441,-33.10966 -0.03,-66.24286 -1.56885,-99.32362 z m -47.8,224.5 c -11.2843,30.93676 -43.63415,48.42428 -75.3684,49.43512 -53.81568,4.41799 -107.90812,1.52881 -161.84024,2.1484 -34.93972,-1.36342 -76.76513,-0.94327 -100.40874,-31.50403 -23.16796,-29.12887 -19.21806,-68.91532 -21.01992,-103.83437 1.75321,-55.85533 -4.01187,-112.31355 5.52011,-167.66504 6.1625,-35.39354 39.82015,-60.361694 74.81875,-61.722268 53.61257,-5.301244 107.59561,-1.789359 161.37066,-2.743945 35.24265,1.619942 77.16448,-0.473579 102.65075,28.697383 25.8738,28.95314 21.68132,70.73219 23.51433,106.74363 -1.78417,55.85439 4.08802,112.31815 -5.4914,167.66504 -0.95289,4.33767 -2.10918,8.64546 -3.7459,12.78008 z"
     id="path129"
     style="fill:#90d3ed;fill-opacity:1" />
</svg>
