<?xml version="1.0" encoding="UTF-8" standalone="no"?>
<svg
   width="1024"
   height="512"
   version="1.1"
   viewBox="0 0 1024 512"
   id="svg4"
   sodipodi:docname="youtube.svg"
   inkscape:version="1.2.1 (9c6d41e410, 2022-07-14, custom)"
   xmlns:inkscape="http://www.inkscape.org/namespaces/inkscape"
   xmlns:sodipodi="http://sodipodi.sourceforge.net/DTD/sodipodi-0.dtd"
   xmlns="http://www.w3.org/2000/svg"
   xmlns:svg="http://www.w3.org/2000/svg">
  <defs
     id="defs8" />
  <sodipodi:namedview
     id="namedview6"
     pagecolor="#505050"
     bordercolor="#ffffff"
     borderopacity="1"
     inkscape:showpageshadow="0"
     inkscape:pageopacity="0"
     inkscape:pagecheckerboard="1"
     inkscape:deskcolor="#505050"
     showgrid="false"
     inkscape:zoom="0.4609375"
     inkscape:cx="303.72881"
     inkscape:cy="259.25424"
     inkscape:window-width="1272"
     inkscape:window-height="2042"
     inkscape:window-x="1280"
     inkscape:window-y="114"
     inkscape:window-maximized="1"
     inkscape:current-layer="svg4" />
  <path
     d="M 773.67774,124.10663 C 762.59923,78.398307 708.84292,67.560247 668.32052,68.332777 c -123.70759,-4.98996 -248.62158,-9.77192 -371.50552,7.8873 -44.35923,12.40665 -54.37535,65.011773 -54.84184,104.915753 -3.07138,74.97505 -9.28608,152.34451 15.34499,224.68319 30.47921,44.65205 90.2222,35.5307 137.06676,39.28888 110.82305,5.20737 222.24897,4.94096 332.5302,-8.36907 48.80431,-15.56548 55.77458,-74.21731 56.20493,-118.04421 3.37278,-64.91487 3.49497,-130.60896 -9.4423,-194.58799 z m -317.51,213.508 c 0,-54.13533 0,-108.27067 0,-162.406 47.57967,27.06833 95.15933,54.13667 142.739,81.205 -47.57967,27.067 -95.15933,54.134 -142.739,81.201 z"
     id="path129"
     style="font-variation-settings:normal;opacity:1;vector-effect:none;fill:#90d3ed;fill-opacity:1;stroke-width:21.798;stroke-linecap:butt;stroke-linejoin:miter;stroke-miterlimit:4;stroke-dasharray:none;stroke-dashoffset:0;stroke-opacity:1;-inkscape-stroke:none;stop-color:#000000;stop-opacity:1" />
</svg>
